<svg width="311" height="234" viewBox="0 0 311 234" fill="none" xmlns="http://www.w3.org/2000/svg">
<g clip-path="url(#clip0_992_276)">
<path d="M86.153 170.987C115.435 194.892 127.746 226.402 165.482 226.398C193.065 226.395 206.461 211.764 229.662 196.782C268.13 171.941 310.738 157.645 310.738 111.912C310.738 65.0001 272.87 26.9711 226.158 26.9701C199.308 26.9701 200.146 33.4301 173.296 33.4331C136.073 33.4371 121.803 1.11314 84.58 1.11914C37.867 1.12714 0 39.1491 0 86.0591C0 132.969 49.57 141.121 86.153 170.986V170.987Z" fill="url(#paint0_linear_992_276)"/>
<path fill-rule="evenodd" clip-rule="evenodd" d="M99.7696 164.186C107.133 164.186 113.427 168.784 115.959 175.277C116.212 175.262 116.468 175.254 116.725 175.254C123.185 175.254 128.481 180.257 128.98 186.616C129.682 186.42 130.408 186.321 131.138 186.322C135.586 186.322 139.192 189.943 139.192 194.41C139.192 198.878 135.586 202.499 131.138 202.499C130.178 202.499 129.257 202.33 128.404 202.021C126.388 206.713 119.646 210.162 111.639 210.162C102.04 210.162 94.2586 205.206 94.2586 199.093C94.2586 198.798 94.2776 198.505 94.3126 198.216C90.8367 197.054 87.8147 194.828 85.6748 191.852C83.535 188.877 82.386 185.303 82.3906 181.639C82.3906 172 90.1706 164.186 99.7696 164.186Z" fill="url(#paint1_linear_992_276)"/>
<path fill-rule="evenodd" clip-rule="evenodd" d="M67.5558 98.627C74.9188 98.627 81.2118 103.226 83.7438 109.719C83.9978 109.703 84.2538 109.696 84.5108 109.696C90.9708 109.696 96.2658 114.699 96.7648 121.057C97.4675 120.862 98.1935 120.763 98.9228 120.764C103.371 120.764 106.977 124.385 106.977 128.852C106.977 133.319 103.371 136.94 98.9228 136.94C97.9628 136.94 97.0428 136.772 96.1888 136.463C94.1738 141.155 87.4308 144.603 79.4238 144.603C69.8258 144.603 62.0438 139.648 62.0438 133.535C62.0438 133.24 62.0628 132.947 62.0988 132.657C58.6229 131.495 55.6007 129.269 53.4607 126.294C51.3207 123.319 50.1714 119.746 50.1758 116.081C50.1758 106.442 57.9568 98.627 67.5558 98.627Z" fill="url(#paint2_linear_992_276)"/>
<path fill-rule="evenodd" clip-rule="evenodd" d="M227.568 159.091C230.119 153.113 236.68 148.859 244.371 148.859C254.28 148.859 262.313 155.92 262.313 164.631C262.313 168.756 260.512 172.511 257.563 175.321C262.066 177.012 265.222 180.941 265.222 185.518C265.222 191.639 259.578 196.601 252.615 196.601C246.951 196.601 242.16 193.318 240.569 188.799C238.201 189.428 235.543 189.781 232.734 189.781C229.037 189.781 225.602 189.17 222.748 188.123C220.439 190.691 216.864 192.338 212.852 192.338C207.207 192.338 202.429 189.078 200.822 184.583C200.315 184.637 199.798 184.666 199.274 184.666C192.311 184.666 186.666 179.704 186.666 173.583C186.666 167.462 192.311 162.5 199.274 162.5C204.217 162.5 208.496 165 210.562 168.641C211.997 168.36 213.478 168.419 214.886 168.812C215.649 163.333 220.96 159.09 227.399 159.09L227.568 159.091Z" fill="url(#paint3_linear_992_276)"/>
<path fill-rule="evenodd" clip-rule="evenodd" d="M177.296 185.835C180.572 178.16 188.996 172.697 198.872 172.697C208.236 172.697 216.296 177.609 219.898 184.662C221.728 184.065 223.64 183.763 225.564 183.766C234.505 183.766 241.753 190.137 241.753 197.997C241.753 205.856 234.505 212.227 225.564 212.227C224.715 212.227 223.88 212.17 223.066 212.059C224.698 214.28 225.645 216.927 225.645 219.768C225.645 227.627 218.397 233.999 209.457 233.999C202.185 233.999 196.032 229.784 193.989 223.981C190.95 224.789 187.536 225.242 183.929 225.242C179.183 225.242 174.773 224.458 171.107 223.113C168.142 226.41 163.553 228.526 158.401 228.526C151.292 228.526 145.254 224.498 143.077 218.897C142.318 218.992 141.553 219.04 140.787 219.039C138.487 219.039 136.299 218.617 134.317 217.857C132.738 223.493 128.296 227.553 123.064 227.553C116.509 227.553 111.195 221.181 111.195 213.322C111.195 205.463 116.509 199.091 123.064 199.091C123.998 199.091 124.906 199.221 125.778 199.465C128.181 194.253 133.996 190.577 140.787 190.577C147.001 190.577 152.398 193.656 155.111 198.173C155.986 197.974 156.881 197.874 157.778 197.875C158.906 197.875 159.993 198.03 161.012 198.317C161.992 191.282 168.812 185.834 177.08 185.834L177.296 185.835Z" fill="url(#paint4_linear_992_276)"/>
<path d="M146.52 84.4719L160.326 142.077M137.332 63.9579L160.327 142.077M160.327 142.077L149.984 48.9629M160.327 142.077L157.945 68.5909" stroke="#394062" stroke-width="0.424" stroke-linecap="round" stroke-linejoin="round"/>
<path d="M159.975 97.0918V142.219" stroke="#393D5E" stroke-width="0.424" stroke-linecap="round" stroke-linejoin="round"/>
<path d="M174.681 82.755L160.086 142.188M160.086 142.188L170.482 51.877M160.086 142.188L181.367 67.594" stroke="#394062" stroke-width="0.424" stroke-linecap="round" stroke-linejoin="round"/>
<path fill-rule="evenodd" clip-rule="evenodd" d="M161.569 36.41C168.746 35.525 174.442 22.529 174.442 15.044C174.442 7.292 168.333 0 160.797 0C153.261 0 147.152 7.292 147.152 15.043C147.152 22.516 152.828 35.48 159.988 36.406L159.1 37.986C159.058 38.0612 159.036 38.1463 159.036 38.2327C159.037 38.3191 159.06 38.4038 159.104 38.4784C159.148 38.553 159.21 38.6148 159.285 38.6577C159.36 38.7006 159.445 38.7232 159.531 38.723H162.087C162.472 38.723 162.709 38.303 162.511 37.973L161.569 36.41Z" fill="url(#paint5_radial_992_276)"/>
<path fill-rule="evenodd" clip-rule="evenodd" d="M189.462 40.8918C187.514 47.5498 177.71 56.5798 169.85 53.2428C161.99 49.9068 159.052 35.4678 161 28.8098C162.947 22.1528 171.151 18.5948 179.01 21.9308C186.87 25.2668 191.409 34.2348 189.462 40.8918ZM167.797 54.4598C167.856 54.4181 167.925 54.3923 167.997 54.385C168.069 54.3776 168.142 54.3889 168.208 54.4178L168.86 54.6888C168.929 54.7187 168.99 54.7627 169.041 54.8181C169.091 54.8734 169.13 54.9387 169.153 55.0098L169.728 56.6958C169.863 57.0918 169.526 57.4498 169.16 57.2968L166.655 56.2538C166.295 56.1038 166.216 55.5898 166.519 55.3738L167.797 54.4598Z" fill="url(#paint6_radial_992_276)"/>
<path fill-rule="evenodd" clip-rule="evenodd" d="M201.811 49.1062C200.886 56.2342 192.803 67.1991 184.841 65.2281C176.879 63.2561 172.053 49.0952 172.978 41.9672C173.902 34.8392 181.225 29.7322 189.188 31.7042C197.15 33.6752 202.735 41.9782 201.811 49.1062ZM183.109 66.1462C183.163 66.0902 183.23 66.0496 183.304 66.0285C183.379 66.0074 183.457 66.0066 183.532 66.0262L184.149 66.1762C184.227 66.1963 184.299 66.2331 184.361 66.284C184.423 66.335 184.473 66.3988 184.508 66.4712L185.316 68.1192C185.502 68.4972 185.217 68.8942 184.828 68.7992L182.289 68.1842C181.907 68.0912 181.738 67.6002 181.995 67.3282L183.109 66.1451V66.1462Z" fill="url(#paint7_radial_992_276)"/>
<path fill-rule="evenodd" clip-rule="evenodd" d="M142.784 37.2027C144.371 44.0067 140.725 58.3727 132.779 61.2987C124.832 64.2247 115.593 54.6047 114.007 47.8007C112.42 40.9967 117.37 32.2237 125.316 29.2967C133.263 26.3707 141.197 30.3977 142.784 37.2027ZM133.358 63.0107C133.384 62.9356 133.426 62.8672 133.482 62.8102C133.537 62.7532 133.604 62.709 133.679 62.6807L134.326 62.4487C134.466 62.3977 134.615 62.4187 134.728 62.5027L136.009 63.4647C136.313 63.6917 136.208 64.2197 135.832 64.3547L133.314 65.2637C132.944 65.3967 132.626 65.0377 132.767 64.6467L133.358 63.0107Z" fill="url(#paint8_radial_992_276)"/>
<path fill-rule="evenodd" clip-rule="evenodd" d="M157.855 23.9307C158.779 31.0577 153.954 45.2197 145.992 47.1907C138.03 49.1617 129.946 38.1977 129.022 31.0697C128.098 23.9417 133.683 15.6387 141.645 13.6667C149.607 11.6957 156.931 16.8027 157.855 23.9307ZM146.268 48.4647C146.302 48.3889 146.352 48.3217 146.416 48.2681C146.479 48.2144 146.553 48.1757 146.634 48.1547L147.251 48.0047C147.323 47.9857 147.399 47.9857 147.471 48.0046C147.544 48.0235 147.61 48.0607 147.664 48.1127L148.845 49.2787C149.116 49.5457 148.95 50.0517 148.561 50.1457L146.023 50.7617C145.641 50.8547 145.356 50.4717 145.527 50.0967L146.268 48.4647Z" fill="url(#paint9_radial_992_276)"/>
<path fill-rule="evenodd" clip-rule="evenodd" d="M191.804 62.5974C191.083 69.8424 183.39 81.3054 175.469 79.6924C167.549 78.0794 162.4 64.0024 163.122 56.7564C163.844 49.5114 170.943 44.0034 178.864 45.6164C186.784 47.2284 192.526 55.3524 191.804 62.5974ZM173.89 80.4494C173.942 80.3896 174.009 80.3449 174.084 80.3199C174.158 80.295 174.239 80.2906 174.316 80.3074L174.917 80.4274C174.997 80.4446 175.072 80.4794 175.136 80.5292C175.201 80.5791 175.253 80.6427 175.29 80.7154L176.148 82.3734C176.339 82.7434 176.065 83.1444 175.674 83.0664L173.13 82.5584C172.747 82.4824 172.56 82.0034 172.804 81.7184L173.89 80.4494Z" fill="url(#paint10_radial_992_276)"/>
<path fill-rule="evenodd" clip-rule="evenodd" d="M158.112 70.0037C165.289 69.1197 170.985 56.1228 170.985 48.6368C170.985 40.8848 164.876 33.5938 157.34 33.5938C149.804 33.5938 143.695 40.8848 143.695 48.6368C143.695 56.1088 149.371 69.0728 156.53 69.9988L155.642 71.5798C155.6 71.655 155.578 71.74 155.578 71.8264C155.579 71.9128 155.602 71.9975 155.646 72.0721C155.69 72.1467 155.752 72.2086 155.827 72.2515C155.902 72.2944 155.987 72.3169 156.073 72.3168H158.63C159.014 72.3168 159.252 71.8968 159.053 71.5668L158.112 70.0037Z" fill="url(#paint11_radial_992_276)"/>
<path fill-rule="evenodd" clip-rule="evenodd" d="M155.615 57.2599C156.971 64.1679 152.897 78.4729 144.922 81.1019C136.946 83.7299 128.09 73.6869 126.733 66.7789C125.377 59.8719 130.566 51.244 138.541 48.615C146.516 45.987 154.258 50.3529 155.615 57.2599ZM145.427 82.7059C145.455 82.6306 145.501 82.5625 145.559 82.5065C145.617 82.4505 145.686 82.408 145.763 82.382L146.402 82.1759C146.47 82.1523 146.543 82.1464 146.614 82.1586C146.685 82.1708 146.751 82.2009 146.808 82.2459L148.053 83.2679C148.347 83.5089 148.221 84.0319 147.84 84.1549L145.314 84.9699C144.939 85.0899 144.633 84.7229 144.785 84.3359L145.427 82.7059Z" fill="url(#paint12_radial_992_276)"/>
<path fill-rule="evenodd" clip-rule="evenodd" d="M160.582 95.1561C167.759 94.2711 173.455 81.2751 173.455 73.7901C173.455 66.0381 167.345 58.7461 159.81 58.7461C152.274 58.7461 146.164 66.0381 146.164 73.7901C146.164 81.2621 151.841 94.2271 159 95.1521L158.113 96.7321C158.071 96.8073 158.049 96.8924 158.049 96.9788C158.05 97.0652 158.073 97.1499 158.117 97.2245C158.16 97.2991 158.223 97.3609 158.298 97.4038C158.373 97.4467 158.458 97.4693 158.544 97.4691H161.1C161.485 97.4691 161.722 97.0491 161.524 96.7191L160.582 95.1561Z" fill="url(#paint13_radial_992_276)"/>
<path fill-rule="evenodd" clip-rule="evenodd" d="M142.197 212.964C142.197 212.165 142.845 211.51 143.645 211.51H177.298C178.098 211.51 178.746 212.165 178.746 212.964C178.746 213.764 178.098 214.419 177.298 214.419H143.645C142.845 214.419 142.197 213.764 142.197 212.964Z" fill="#3A527F"/>
<path fill-rule="evenodd" clip-rule="evenodd" d="M160.307 129.414C169.036 129.414 176.112 136.633 176.112 145.537V173.085C176.112 181.99 169.036 189.208 160.307 189.208C151.578 189.208 144.502 181.99 144.502 173.085V145.537C144.502 136.633 151.578 129.414 160.307 129.414Z" fill="url(#paint14_linear_992_276)"/>
<path d="M156.606 139.004L152.814 142.812M162.252 139.037L153.795 147.53M166.962 140.011L155.677 151.344M166.064 146.616L160.409 152.295" stroke="black" stroke-opacity="0.25" stroke-width="1.325" stroke-linecap="round" stroke-linejoin="round"/>
<path fill-rule="evenodd" clip-rule="evenodd" d="M176.112 159.473V173.247C176.112 182.151 169.036 189.369 160.307 189.369C151.578 189.369 144.502 182.151 144.502 173.247V159.57L176.112 159.473Z" fill="url(#paint15_linear_992_276)"/>
<path d="M144.498 161.342H176.112V166.663H144.498V161.342Z" fill="black" fill-opacity="0.25"/>
<path fill-rule="evenodd" clip-rule="evenodd" d="M181.709 158.216C181.709 157.692 181.917 157.19 182.288 156.819C182.658 156.448 183.161 156.24 183.685 156.24C184.209 156.24 184.712 156.448 185.082 156.819C185.453 157.19 185.661 157.692 185.661 158.216V160.083C185.661 160.607 185.453 161.11 185.082 161.48C184.712 161.851 184.209 162.059 183.685 162.059C183.161 162.059 182.658 161.851 182.288 161.48C181.917 161.11 181.709 160.607 181.709 160.083V158.216Z" fill="#A07BD0"/>
<path d="M138.904 158.216C138.904 157.125 138.02 156.24 136.929 156.24C135.838 156.24 134.953 157.125 134.953 158.216V160.082C134.953 161.174 135.838 162.058 136.929 162.058C138.02 162.058 138.904 161.174 138.904 160.082V158.216Z" fill="#A07BD0"/>
<path fill-rule="evenodd" clip-rule="evenodd" d="M158.002 193.408H162.612V211.508H158.002V193.408Z" fill="#3A527F"/>
<path fill-rule="evenodd" clip-rule="evenodd" d="M158.002 193.408H162.612V199.92L158.002 195.79V193.408Z" fill="black" fill-opacity="0.25"/>
<path d="M180.212 154.623V173.737C180.212 184.527 171.3 193.275 160.307 193.275H160.126C149.133 193.275 140.221 184.527 140.221 173.737V154.623" stroke="#3A527F" stroke-width="2.575" stroke-linecap="round" stroke-linejoin="round"/>
<path d="M141.537 157.533H179.074V161.411H141.537V157.533Z" fill="#A07BD0"/>
<path d="M141.537 160.012H179.074V161.412H141.537V160.012Z" fill="black" fill-opacity="0.25"/>
</g>
<defs>
<linearGradient id="paint0_linear_992_276" x1="115.241" y1="63.3921" x2="192.72" y2="177.72" gradientUnits="userSpaceOnUse">
<stop stop-color="#FBFBFB"/>
<stop offset="1" stop-color="#C5D9F8"/>
</linearGradient>
<linearGradient id="paint1_linear_992_276" x1="126.379" y1="214.9" x2="134.184" y2="172.81" gradientUnits="userSpaceOnUse">
<stop stop-color="#CCE0FF"/>
<stop offset="1" stop-color="white"/>
</linearGradient>
<linearGradient id="paint2_linear_992_276" x1="92.6318" y1="184.948" x2="113.138" y2="118.739" gradientUnits="userSpaceOnUse">
<stop stop-color="#CCE0FF"/>
<stop offset="1" stop-color="white"/>
</linearGradient>
<linearGradient id="paint3_linear_992_276" x1="199.113" y1="202.482" x2="195.629" y2="160.402" gradientUnits="userSpaceOnUse">
<stop stop-color="#CCE0FF"/>
<stop offset="1" stop-color="white"/>
</linearGradient>
<linearGradient id="paint4_linear_992_276" x1="130.878" y1="229.637" x2="128.657" y2="180.837" gradientUnits="userSpaceOnUse">
<stop stop-color="#CCE0FF"/>
<stop offset="1" stop-color="white"/>
</linearGradient>
<radialGradient id="paint5_radial_992_276" cx="0" cy="0" r="1" gradientUnits="userSpaceOnUse" gradientTransform="translate(158.593 1.59492) rotate(78.06) scale(27.9962 20.5863)">
<stop stop-color="#3C88D1"/>
<stop offset="1" stop-color="#393C5C"/>
</radialGradient>
<radialGradient id="paint6_radial_992_276" cx="0" cy="0" r="1" gradientUnits="userSpaceOnUse" gradientTransform="translate(172.352 18.0258) rotate(80.976) scale(29.539 20.6283)">
<stop stop-color="#B682DB"/>
<stop offset="1" stop-color="#164B89"/>
</radialGradient>
<radialGradient id="paint7_radial_992_276" cx="0" cy="0" r="1" gradientUnits="userSpaceOnUse" gradientTransform="translate(186.402 32.4681) rotate(83.388) scale(28.3679 21.2492)">
<stop stop-color="#3C88D1"/>
<stop offset="1" stop-color="#393C5C"/>
</radialGradient>
<radialGradient id="paint8_radial_992_276" cx="0" cy="0" r="1" gradientUnits="userSpaceOnUse" gradientTransform="translate(124.001 31.4965) rotate(65.651) scale(25.6506 24.1532)">
<stop stop-color="#3C88D1"/>
<stop offset="1" stop-color="#393C5C"/>
</radialGradient>
<radialGradient id="paint9_radial_992_276" cx="0" cy="0" r="1" gradientUnits="userSpaceOnUse" gradientTransform="translate(136.036 15.2839) rotate(59.307) scale(24.4499 23.9296)">
<stop stop-color="#B682DB"/>
<stop offset="1" stop-color="#164B89"/>
</radialGradient>
<radialGradient id="paint10_radial_992_276" cx="0" cy="0" r="1" gradientUnits="userSpaceOnUse" gradientTransform="translate(176.224 46.5765) rotate(82.242) scale(28.2138 21.1739)">
<stop stop-color="#3C88D1"/>
<stop offset="1" stop-color="#393C5C"/>
</radialGradient>
<radialGradient id="paint11_radial_992_276" cx="0" cy="0" r="1" gradientUnits="userSpaceOnUse" gradientTransform="translate(155.135 35.1888) rotate(78.06) scale(27.9963 20.5863)">
<stop stop-color="#3C88D1"/>
<stop offset="1" stop-color="#393C5C"/>
</radialGradient>
<radialGradient id="paint12_radial_992_276" cx="0" cy="0" r="1" gradientUnits="userSpaceOnUse" gradientTransform="translate(137.027 50.8159) rotate(67.0948) scale(25.7845 23.8106)">
<stop stop-color="#3C88D1"/>
<stop offset="1" stop-color="#393C5C"/>
</radialGradient>
<radialGradient id="paint13_radial_992_276" cx="0" cy="0" r="1" gradientUnits="userSpaceOnUse" gradientTransform="translate(154.19 58.7461) rotate(69.1742) scale(26.5243 21.0876)">
<stop stop-color="#B682DB"/>
<stop offset="1" stop-color="#164B89"/>
</radialGradient>
<linearGradient id="paint14_linear_992_276" x1="180.981" y1="140.271" x2="153.988" y2="129.735" gradientUnits="userSpaceOnUse">
<stop stop-color="#24B9E7"/>
<stop offset="1" stop-color="#AFFFF7"/>
</linearGradient>
<linearGradient id="paint15_linear_992_276" x1="179.5" y1="182.64" x2="165.137" y2="153.034" gradientUnits="userSpaceOnUse">
<stop stop-color="#003D50"/>
<stop offset="1" stop-color="#00799E"/>
</linearGradient>
<clipPath id="clip0_992_276">
<rect width="311" height="234" fill="white"/>
</clipPath>
</defs>
</svg>
